<?xml version="1.0" standalone="no"?>
<!DOCTYPE svg PUBLIC "-//W3C//DTD SVG 1.1//EN" "http://www.w3.org/Graphics/SVG/1.1/DTD/svg11.dtd" >
<svg xmlns="http://www.w3.org/2000/svg">
<metadata>Generated by IcoMoon</metadata>
<defs>
<font id="icomoon" horiz-adv-x="1024">
<font-face units-per-em="1024" ascent="960" descent="-64" />
<missing-glyph horiz-adv-x="1024" />
<glyph unicode="&#x20;" horiz-adv-x="512" d="" />
<glyph unicode="&#xe900;" glyph-name="angle-down" horiz-adv-x="896" d="M402.8 274.8c25-25 65.6-25 90.6 0l320 320c25 25 25 65.6 0 90.6s-65.6 25-90.6 0l-274.8-274.8-274.8 274.6c-25 25-65.6 25-90.6 0s-25-65.6 0-90.6l320-320z" />
<glyph unicode="&#xe901;" glyph-name="angle-left" horiz-adv-x="640" d="M82.8 493.2c-25-25-25-65.6 0-90.6l320-320c25-25 65.6-25 90.6 0s25 65.6 0 90.6l-274.8 274.8 274.6 274.8c25 25 25 65.6 0 90.6s-65.6 25-90.6 0l-320-320z" />
<glyph unicode="&#xe902;" glyph-name="angle-right" horiz-adv-x="640" d="M557.2 493.2c25-25 25-65.6 0-90.6l-320-320c-25-25-65.6-25-90.6 0s-25 65.6 0 90.6l274.8 274.8-274.6 274.8c-25 25-25 65.6 0 90.6s65.6 25 90.6 0l320-320z" />
<glyph unicode="&#xe903;" glyph-name="angle-up" horiz-adv-x="896" d="M402.8 685.2c25 25 65.6 25 90.6 0l320-320c25-25 25-65.6 0-90.6s-65.6-25-90.6 0l-274.8 274.8-274.8-274.6c-25-25-65.6-25-90.6 0s-25 65.6 0 90.6l320 320z" />
<glyph unicode="&#xe904;" glyph-name="arrow-down" horiz-adv-x="768" d="M338.8 18.8c25-25 65.6-25 90.6 0l320 320c25 25 25 65.6 0 90.6s-65.6 25-90.6 0l-210.8-211v613.6c0 35.4-28.6 64-64 64s-64-28.6-64-64v-613.4l-210.8 210.6c-25 25-65.6 25-90.6 0s-25-65.6 0-90.6l320-320z" />
<glyph unicode="&#xe905;" glyph-name="arrow-left" horiz-adv-x="896" d="M18.8 493.2c-25-25-25-65.6 0-90.6l320-320c25-25 65.6-25 90.6 0s25 65.6 0 90.6l-211 210.8h613.6c35.4 0 64 28.6 64 64s-28.6 64-64 64h-613.4l210.6 210.8c25 25 25 65.6 0 90.6s-65.6 25-90.6 0l-320-320z" />
<glyph unicode="&#xe906;" glyph-name="arrow-right" horiz-adv-x="896" d="M877.2 402.8c25 25 25 65.6 0 90.6l-320 320c-25 25-65.6 25-90.6 0s-25-65.6 0-90.6l211-210.8h-613.6c-35.4 0-64-28.6-64-64s28.6-64 64-64h613.4l-210.6-210.8c-25-25-25-65.6 0-90.6s65.6-25 90.6 0l320 320z" />
<glyph unicode="&#xe907;" glyph-name="arrow-up" horiz-adv-x="768" d="M429.2 877.2c-25 25-65.6 25-90.6 0l-320-320c-25-25-25-65.6 0-90.6s65.6-25 90.6 0l210.8 211v-613.6c0-35.4 28.6-64 64-64s64 28.6 64 64v613.6l210.8-210.8c25-25 65.6-25 90.6 0s25 65.6 0 90.6l-320 320z" />
<glyph unicode="&#xe908;" glyph-name="busness-idea" d="M843.849 588.457c-1.773 0.087-3.547-0.178-5.218-0.777-1.673-0.6-3.209-1.524-4.523-2.718s-2.378-2.636-3.134-4.242c-0.757-1.607-1.188-3.348-1.271-5.122-5.786-112.513-67.508-213.453-165.233-270.192-35.039-20.252-58.025-56.418-62.365-96.279h-28.771v178.254c9.484 3.536 18.646 7.393 27.487 12.215 6.589 3.536 9 11.734 5.624 18.323-1.713 3.146-4.589 5.495-8.015 6.547-3.424 1.050-7.125 0.72-10.308-0.922-27.645-14.787-58.827-22.503-90.331-22.503-105.923 0-191.916 86.154-191.916 191.916s86.154 191.915 191.916 191.915c61.559 0 119.746-29.896 155.75-79.723 4.34-6.108 12.857-7.395 18.804-3.055 6.108 4.34 7.395 12.859 3.055 18.806-20.331 28.138-47.042 51.054-77.943 66.869-30.903 15.814-65.114 24.075-99.828 24.106-120.711 0-218.919-98.208-218.919-218.918 0-94.189 59.954-174.395 143.535-205.256v-178.254h-28.771c-2.222 19.866-9.064 38.934-19.976 55.681-10.913 16.746-25.595 30.704-42.871 40.76-101.904 59.471-165.233 169.411-165.233 287.229 0 92.101 36.808 177.771 103.674 241.1 66.864 63.329 154.464 95.475 246.725 90.653 91.778-4.822 178.573-49.184 238.206-121.675 2.326-2.548 5.54-4.109 8.98-4.362s6.848 0.821 9.523 3.001c2.673 2.18 4.411 5.302 4.856 8.723s-0.438 6.884-2.464 9.675c-64.293 78.277-158.161 126.175-257.494 131.479-99.815 5.304-194.487-29.414-266.817-98.047-72.33-68.472-112.192-161.216-112.192-260.708 0-127.3 68.471-246.243 178.575-310.536 27.003-15.753 45.005-42.916 49.183-73.134h-3.857c-30.379 0-55.132-24.753-55.132-55.132 0-16.716 7.554-31.504 19.288-41.469-11.734-10.127-19.288-24.914-19.288-41.469 0-30.379 24.753-55.132 55.132-55.132h38.416c12.859-42.434 51.755-72.33 96.922-72.33s84.064 29.896 96.922 72.33h38.416c30.379 0 55.132 24.753 55.132 55.132 0 16.716-7.554 31.504-19.288 41.469 11.734 10.125 19.288 24.913 19.288 41.469 0 30.379-24.753 55.132-55.132 55.132h-3.857c2.062 15.036 7.52 29.404 15.957 42.020s19.636 23.144 32.745 30.791c105.601 61.401 172.466 170.538 178.573 292.212 0.138 1.759-0.081 3.528-0.641 5.201-0.562 1.673-1.454 3.215-2.624 4.535s-2.594 2.391-4.188 3.148c-1.592 0.759-3.322 1.187-5.084 1.261zM449.41 379.344c15.591-3.536 31.825-5.626 48.541-5.626 16.395 0 32.63 2.090 48.542 5.626v-170.217h-97.083v170.217zM497.951-29.24c-30.379 0-57.060 18.323-68.633 45.328h137.266c-5.75-13.442-15.317-24.902-27.516-32.959-12.201-8.057-26.497-12.358-41.117-12.369zM661.256 71.058c0-15.43-12.536-27.968-27.968-27.968h-270.674c-7.253 0.247-14.127 3.3-19.171 8.518s-7.865 12.192-7.865 19.45 2.821 14.232 7.865 19.45c5.044 5.218 11.917 8.273 19.171 8.518h270.674c15.431 0.161 27.968-12.376 27.968-27.968zM661.256 154.157c0-15.43-12.536-27.968-27.968-27.968h-270.674c-7.253 0.247-14.127 3.3-19.171 8.518s-7.865 12.192-7.865 19.45 2.821 14.23 7.865 19.45c5.044 5.218 11.917 8.271 19.171 8.518h270.674c15.431 0.16 27.968-12.376 27.968-27.968zM451.66 460.353c3.536-2.25 7.393-3.215 11.25-3.215 5.466 0 10.93 2.251 15.11 6.429l123.924 125.854c5.947 6.108 7.716 15.109 4.501 23.146-1.618 3.863-4.344 7.162-7.834 9.478s-7.587 3.55-11.776 3.541h-65.258l26.522 74.42c2.25 6.429 1.286 13.663-2.572 19.288-4.017 5.626-10.446 9-17.358 9h-18.645c-5.947 0-11.734-2.571-15.591-6.912l-100.619-110.262c-2.765-3.049-4.585-6.834-5.238-10.898-0.653-4.062-0.113-8.228 1.555-11.99s4.392-6.957 7.843-9.2c3.449-2.243 7.477-3.437 11.591-3.434h66.222l-32.146-90.332c-3.536-9.162 0-19.448 8.519-24.914zM573.013 598.584l-95.797-97.404 29.735 83.582c1.446 4.178 0.804 8.679-1.769 12.376-0.321 0.481-0.802 0.963-1.125 1.446h68.956zM422.085 602.764l90.010 98.529h7.875l-30.217-84.868c-1.446-4.178-0.804-8.679 1.769-12.376 0.321-0.481 0.804-0.963 1.125-1.446h-70.561v0.161zM999.436 850.292l-55.291 48.702c-7.062 6.23-16.306 9.407-25.706 8.834s-18.19-4.847-24.444-11.888l-251.224-283.372c-5.626-6.429-9.806-14.305-11.894-22.824l-25.235-101.261c-1.929-7.554 0.483-15.27 6.429-20.413 3.857-3.376 8.679-5.143 13.501-5.143 2.571 0 4.982 0.483 7.393 1.446l97.404 37.773c8.037 3.215 15.431 8.197 21.057 14.626l197.54 222.614c0.321 0.323 0.642 0.323 0.804 0.644 0.321 0.321 0.321 0.642 0.642 0.963l52.238 58.99c12.859 14.787 11.573 37.29-3.215 50.309zM793.055 674.45c2.697-2.363 6.215-3.57 9.795-3.359s6.932 1.821 9.332 4.484l83.582 94.189 24.592-21.698-180.663-203.649-68.15 60.113 180.663 203.488 23.146-20.412-83.42-94.030c-1.187-1.327-2.101-2.875-2.687-4.557s-0.835-3.463-0.731-5.241c0.104-1.778 0.56-3.517 1.339-5.118s1.87-3.032 3.204-4.211zM656.593 581.706l62.365-54.97-84.224-32.628 21.859 87.599zM982.399 817.984l-44.201-49.828-68.152 60.115 44.041 49.666c1.496 1.7 3.603 2.738 5.862 2.889s4.485-0.599 6.194-2.085l55.291-48.702c3.697-3.054 4.018-8.519 0.965-12.055zM283.212 112.849c-13.663-8.841-28.771-15.109-45.006-18.645-4.661-0.965-8.358-4.501-9.965-9.002l-10.608-32.628h-21.378l-10.608 32.628c-0.729 2.24-2.032 4.251-3.781 5.831s-3.882 2.673-6.184 3.171c-15.912 3.536-31.022 9.804-45.005 18.645-1.982 1.243-4.25 1.955-6.586 2.067-2.336 0.113-4.663-0.377-6.755-1.424l-30.539-15.591-15.109 15.109 15.591 30.54c2.25 4.18 1.929 9.323-0.643 13.341-8.745 13.824-15.052 29.046-18.645 45.005-0.498 2.302-1.591 4.436-3.17 6.184s-3.59 3.052-5.831 3.781l-32.468 10.448v21.217l32.629 10.608c4.501 1.446 8.037 5.305 9.001 9.965 3.697 16.234 9.965 31.342 18.645 45.005 2.732 4.018 3.054 9.162 0.804 13.501l-15.752 30.54 15.109 15.109 30.7-15.751c4.34-2.251 9.483-1.93 13.501 0.642 13.662 8.841 28.771 15.109 45.006 18.645 7.233 1.607 11.894 8.841 10.287 16.074s-8.841 11.894-16.074 10.287c-16.716-3.697-32.468-9.804-46.934-18.162l-24.914 12.857c-9.805 4.983-21.699 3.215-29.414-4.661l-16.716-16.716c-7.715-7.875-9.644-19.61-4.661-29.414l12.859-24.914c-7.072-12.215-12.537-25.395-16.395-39.379l-26.682-8.679c-10.448-3.376-17.52-13.020-17.52-24.111v-23.788c0-11.092 7.072-20.736 17.52-24.111l26.682-8.519c3.215-13.822 8.679-27.003 15.912-39.54l-12.859-24.913c-4.983-9.806-3.054-21.699 4.661-29.415l16.716-16.716c7.876-7.714 19.609-9.644 29.414-4.661l24.914 12.698c12.537-7.233 25.717-12.536 39.379-16.395l8.681-26.681c3.375-10.448 13.019-17.52 24.109-17.52h23.789c11.090 0 20.734 7.072 24.109 17.52l8.679 26.681c16.395 4.501 31.986 11.413 46.131 20.413 6.268 4.018 8.037 12.376 4.018 18.645-0.939 1.511-2.169 2.821-3.62 3.851-1.449 1.030-3.091 1.763-4.827 2.15-1.736 0.389-3.531 0.428-5.283 0.116-1.75-0.313-3.423-0.971-4.915-1.938zM121.837 233.076c0-47.095 38.254-85.349 85.349-85.349 46.933 0 85.189 38.254 85.189 85.349 0 46.935-38.256 85.189-85.189 85.189-47.095 0-85.349-38.254-85.349-85.189zM207.186 291.261c32.146 0 58.185-26.199 58.185-58.185 0-32.146-26.199-58.346-58.185-58.346-32.146 0-58.346 26.2-58.346 58.346 0 32.147 26.2 58.185 58.346 58.185z" />
<glyph unicode="&#xe909;" glyph-name="busness-mind" d="M890.941 341.028l77.633 114.589c5.025 7.455 5.511 16.857 1.297 24.798s-12.318 12.803-21.394 12.803h-351.868c-7.942 0-15.396-3.89-19.935-10.535l-79.418-117.182-19.773 29.175c-2.116 2.847-5.248 4.769-8.745 5.367s-7.089-0.175-10.032-2.157c-2.941-1.982-5.007-5.022-5.766-8.488-0.759-3.464-0.154-7.089 1.69-10.12l16.532-24.474h-343.603l-75.366 111.022h112.967c3.653 0 7.157 1.453 9.741 4.036s4.036 6.087 4.036 9.741c0 3.655-1.453 7.159-4.036 9.742s-6.087 4.035-9.741 4.035h-119.288c-8.914 0-17.18-4.862-21.394-12.803-4.214-7.943-3.728-17.506 1.297-24.798l77.635-114.589-77.635-114.587c-5.024-7.456-5.511-16.857-1.297-24.798s12.318-12.805 21.394-12.805h352.031c7.942 0 15.396 3.89 19.935 10.535l65.642 96.76v-325.287c0-1.459-0.487-2.593-1.136-3.729-1.297-2.269-3.727-3.89-6.483-3.89h-334.364c-0.81 0-1.621 0.162-2.431 0.487-0.162 0-0.324 0-0.486 0.162-0.162 0-0.162 0.162-0.324 0.325-1.764 0.918-3.101 2.488-3.728 4.375-0.162 0.811-0.486 1.459-0.486 2.27v182.174c0 1.809-0.356 3.6-1.049 5.271s-1.707 3.19-2.986 4.469c-1.279 1.279-2.798 2.294-4.469 2.987s-3.463 1.048-5.272 1.048-3.601-0.356-5.272-1.048c-1.671-0.693-3.19-1.708-4.469-2.987s-2.294-2.798-2.986-4.469c-0.692-1.671-1.049-3.463-1.049-5.271v-182.174c0-19.287 15.721-35.008 35.009-35.008h711.516c19.45 0 35.172 15.721 35.172 35.008v217.83h60.616c8.914 0 17.18 4.863 21.394 12.805s3.727 17.504-1.297 24.798l-77.958 114.587zM598.393 465.827h343.765l-75.204-110.86h-343.765l75.204 110.86zM396.121 216.392h-343.927l75.204 110.86h343.926l-75.203-110.86zM853.014-36.448l-342.791 0.162c0.485 2.431 0.81 4.863 0.81 7.294v356.243h349.6v-356.243c0-4.052-3.404-7.456-7.619-7.456zM888.186 216.392v79.904l54.133-79.904h-54.133zM797.422 105.37h-136.792c-13.128 0-23.664-10.697-23.664-23.662v-56.889c0-13.129 10.698-23.664 23.664-23.664h136.792c13.129 0 23.664 10.697 23.664 23.664v56.889c0 12.965-10.697 23.662-23.664 23.662zM793.532 28.546h-129.175v49.432h129.175v-49.432zM181.369 619.315c0-24.798 11.346-46.841 28.688-61.914-6.97-12.318-10.859-26.418-10.859-40.681 0-42.463 32.253-77.473 73.583-81.685-1.602-12.545-0.252-25.29 3.94-37.22s11.113-22.717 20.209-31.501c2.593-2.593 6.158-3.89 9.563-3.89 3.565 0 7.132 1.459 9.887 4.214 5.348 5.511 5.186 14.1-0.162 19.45-10.697 10.372-16.532 24.311-16.532 39.060 0 4.052 0.647 8.104 1.459 11.993 35.818 8.914 62.562 41.006 62.562 79.579 0 0.649-0.325 0.974-0.325 1.621 0 0.487 0.325 0.972 0.325 1.621 0 21.718 17.666 39.222 39.222 39.222 21.718 0 39.222-17.666 39.222-39.222 0-3.653 1.451-7.159 4.035-9.742s6.089-4.035 9.742-4.035c3.653 0 7.157 1.451 9.741 4.035s4.036 6.089 4.036 9.742c0 36.792-29.984 66.776-66.776 66.776s-66.776-29.984-66.776-66.776c0-0.649 0.325-0.972 0.325-1.621 0-0.485-0.325-0.972-0.325-1.621-0.043-14.5-5.834-28.393-16.102-38.632-10.27-10.238-24.179-15.987-38.68-15.987-14.5 0.043-28.393 5.832-38.632 16.102-10.238 10.268-15.989 24.179-15.987 38.679 0 9.238 2.431 18.153 6.807 26.257 9.238-3.727 19.286-5.835 29.983-5.835 3.655 0 7.159 1.453 9.742 4.036s4.035 6.087 4.035 9.741c0 3.653-1.451 7.159-4.035 9.742s-6.087 4.035-9.742 4.035c-30.145 0-54.619 24.474-54.619 54.62 0 30.307 24.474 54.781 54.619 54.781 30.309 0 54.782-24.634 54.782-54.781 0-3.655 1.451-7.159 4.035-9.742s6.089-4.035 9.742-4.035c3.653 0 7.159 1.451 9.742 4.035 2.582 2.584 4.035 6.087 4.035 9.742 0 45.381-36.954 82.334-82.336 82.334-4.375 0-8.589-0.647-12.803-1.297-7.779 9.725-12.318 21.556-12.318 34.198 0 28.688 22.366 52.837 51.053 54.782 0.162 0 0.325 0.161 0.649 0.161 0.487 0 0.81-0.323 1.297-0.323 30.309 0 54.782-24.636 54.782-54.782 0-36.792 29.983-66.776 66.774-66.776s66.776 29.984 66.776 66.776c0 3.653-1.451 7.159-4.035 9.742s-6.087 4.035-9.742 4.035c-3.653 0-7.157-1.451-9.741-4.035s-4.035-6.089-4.035-9.742c0-21.718-17.666-39.222-39.224-39.222-21.718 0-39.222 17.666-39.222 39.222 0 42.787-32.9 77.635-74.555 81.525-0.647 3.404-0.972 6.807-0.972 10.373 0 30.308 24.474 54.944 54.62 54.944 6.97 0 13.777-1.297 20.422-4.052 0.158-21.7 8.88-42.459 24.272-57.758 15.39-15.299 36.199-23.899 57.9-23.929 1.81 0 3.601 0.356 5.273 1.049 1.671 0.692 3.19 1.706 4.469 2.985s2.294 2.799 2.985 4.47c0.693 1.671 1.049 3.463 1.049 5.272s-0.356 3.601-1.049 5.272c-0.692 1.671-1.706 3.19-2.985 4.469s-2.798 2.294-4.469 2.986c-1.671 0.692-3.463 1.049-5.273 1.049-30.147 0-54.62 24.474-54.62 54.62 0 1.297-0.323 2.431-0.647 3.566 0.325 0.972 0.972 1.783 1.134 2.917 3.080 27.553 26.419 48.461 54.296 48.461 30.794 0 55.917-24.636 55.917-54.944v-414.269c0-3.653 1.451-7.157 4.035-9.741s6.087-4.035 9.742-4.035c3.653 0 7.157 1.451 9.741 4.035s4.036 6.087 4.036 9.741v414.107c0 30.308 25.121 54.944 55.915 54.944 27.878 0 51.217-20.908 54.296-48.461 0.162-1.134 0.811-1.945 1.136-2.917-0.325-1.135-0.649-2.269-0.649-3.566 0-30.146-24.474-54.62-54.62-54.62-3.653 0-7.157-1.451-9.741-4.035s-4.036-6.088-4.036-9.741c0-3.654 1.453-7.159 4.036-9.742s6.087-4.035 9.741-4.035c45.22 0 81.849 36.63 82.174 81.687 6.483 2.593 13.29 4.052 20.259 4.052 30.147 0 54.62-24.636 54.62-54.944 0-3.566-0.325-6.969-0.974-10.373-41.653-4.052-74.555-38.898-74.555-81.525 0-21.718-17.666-39.222-39.222-39.222s-39.222 17.666-39.222 39.222c0 3.653-1.451 7.159-4.035 9.742s-6.089 4.035-9.742 4.035c-3.653 0-7.157-1.451-9.741-4.035s-4.036-6.089-4.036-9.742c0-36.792 29.984-66.776 66.776-66.776s66.776 29.984 66.776 66.776c0 30.309 24.636 54.782 54.782 54.782 0.485 0 0.81 0.162 1.297 0.325 0.162 0 0.323-0.162 0.647-0.162 28.525-1.946 51.055-25.932 51.055-54.782 0-12.48-4.376-24.311-12.157-34.198-4.213 0.649-8.427 1.297-12.803 1.297-45.382 0-82.334-36.954-82.334-82.334 0-1.81 0.356-3.601 1.048-5.273s1.708-3.19 2.987-4.469 2.798-2.294 4.469-2.985c1.671-0.693 3.463-1.049 5.271-1.049 1.81 0 3.601 0.356 5.273 1.049s3.19 1.706 4.469 2.985 2.294 2.798 2.987 4.469c0.692 1.671 1.048 3.463 1.048 5.273 0 30.309 24.636 54.782 54.782 54.782s54.62-24.636 54.62-54.782c0-30.147-24.474-54.62-54.62-54.62-1.809 0-3.601-0.356-5.273-1.049s-3.19-1.706-4.469-2.985-2.294-2.798-2.985-4.469c-0.693-1.671-1.049-3.463-1.049-5.273s0.356-3.6 1.049-5.271c0.692-1.671 1.706-3.19 2.985-4.469s2.798-2.295 4.469-2.987c1.671-0.692 3.464-1.049 5.273-1.049 10.535 0 20.584 2.108 29.984 5.835 4.376-8.104 6.807-17.017 6.807-26.257 0-1.809 0.356-3.6 1.049-5.271s1.706-3.19 2.985-4.469 2.798-2.294 4.469-2.987c1.671-0.692 3.463-1.049 5.273-1.049 1.809 0 3.6 0.358 5.271 1.049 1.671 0.693 3.19 1.708 4.469 2.987s2.294 2.798 2.987 4.469c0.692 1.671 1.049 3.463 1.049 5.271 0 14.264-3.729 28.363-10.859 40.681 8.975 7.631 16.187 17.12 21.14 27.809s7.527 22.325 7.546 34.106c0 30.794-17.18 57.536-42.301 71.637 8.104 12.967 12.803 27.878 12.803 43.599 0 37.601-25.608 69.855-60.616 79.418 0.647 4.052 0.972 8.104 0.972 12.318 0 45.381-36.954 82.335-82.172 82.335-8.428 0-16.694-1.297-24.798-3.89-5.593 16.138-16.074 30.132-29.987 40.038s-30.569 15.229-47.648 15.231c-29.173 0-54.782-14.911-69.693-37.278-14.911 22.367-40.519 37.278-69.692 37.278-35.657 0-66.451-22.691-77.635-55.268-8.014 2.579-16.379 3.892-24.798 3.89-45.382 0-82.172-36.953-82.172-82.335 0-4.214 0.323-8.266 0.972-12.318-17.389-4.803-32.729-15.167-43.674-29.506-10.946-14.341-16.896-31.872-16.942-49.911 0-15.721 4.537-30.632 12.803-43.599-25.932-14.101-43.274-40.843-43.274-71.637zM459.819 462.588c-45.382 0-82.174-36.954-82.174-82.334 0-3.655 1.453-7.159 4.036-9.742s6.087-4.035 9.741-4.035c3.655 0 7.159 1.451 9.742 4.035s4.035 6.087 4.035 9.742c0 30.307 24.474 54.781 54.62 54.781 3.653 0 7.157 1.453 9.741 4.036s4.036 6.087 4.036 9.741c0 3.653-1.453 7.159-4.036 9.742s-6.087 4.035-9.741 4.035zM646.854 586.739c-36.792 0-66.776-29.984-66.776-66.776 0-3.655 1.453-7.159 4.036-9.742s6.087-4.035 9.741-4.035c3.653 0 7.159 1.451 9.742 4.035s4.035 6.087 4.035 9.742c0 21.718 17.666 39.222 39.222 39.222s39.222-17.666 39.222-39.222c0-3.655 1.453-7.159 4.036-9.742s6.087-4.035 9.741-4.035c3.653 0 7.159 1.451 9.742 4.035s4.035 6.087 4.035 9.742c0 36.792-29.984 66.776-66.776 66.776zM106.167 855.624c1.945-4.538 6.159-7.456 11.021-7.942s9.563 1.459 12.48 5.511l23.501 31.767 21.232-46.030c2.269-5.024 7.294-7.942 12.48-7.942 1.944 0 3.89 0.324 5.673 1.297 6.97 3.242 9.886 11.345 6.807 18.315l-30.958 66.938c-1.015 2.148-2.557 4.004-4.485 5.393s-4.176 2.266-6.535 2.549c-4.862 0.486-9.562-1.621-12.48-5.511l-23.501-31.767-23.987 52.189c-3.242 6.969-11.345 9.887-18.315 6.807-6.969-3.242-9.887-11.345-6.807-18.315l33.874-73.259zM94.498 706.028c2.917 0 5.835 0.972 8.266 2.755 3.89 2.918 5.835 7.779 5.348 12.48l-4.214 37.926 45.219-18.315c7.131-2.918 15.073 0.487 17.99 7.617 0.687 1.681 1.033 3.482 1.022 5.296-0.011 1.816-0.383 3.611-1.090 5.284-0.707 1.671-1.739 3.187-3.035 4.458-1.296 1.273-2.83 2.275-4.514 2.952l-66.776 27.067c-2.205 0.895-4.605 1.2-6.964 0.889-2.359-0.314-4.596-1.234-6.492-2.672s-3.386-3.346-4.322-5.533c-0.937-2.188-1.289-4.581-1.022-6.946l4.376-37.926-51.378 20.907c-1.681 0.687-3.481 1.033-5.296 1.022s-3.611-0.383-5.283-1.090c-1.672-0.707-3.187-1.739-4.459-3.034-1.272-1.297-2.275-2.831-2.952-4.515-2.917-6.97 0.486-15.073 7.618-17.991l72.934-29.66c1.621-0.649 3.404-0.972 5.024-0.972zM832.271 831.474c1.627-0.759 3.389-1.188 5.183-1.265s3.586 0.202 5.273 0.819c1.686 0.617 3.234 1.561 4.554 2.778s2.388 2.682 3.141 4.312l20.097 43.437 22.205-29.822c2.918-3.89 7.619-5.997 12.48-5.511s9.076 3.566 11.021 7.942l32.415 70.503c3.242 6.969 0.162 15.073-6.807 18.315s-15.073 0.162-18.315-6.807l-22.69-49.433-22.205 29.822c-2.916 3.89-7.617 5.997-12.479 5.511s-9.077-3.566-11.021-7.942l-29.66-64.344c-3.080-6.969-0.162-15.073 6.807-18.315zM1009.907 757.406c-1.396 3.379-4.066 6.075-7.433 7.5s-7.16 1.468-10.558 0.117l-48.623-19.773 4.052 35.495c0.268 2.365-0.085 4.758-1.022 6.946s-2.426 4.094-4.321 5.533c-1.897 1.438-4.134 2.358-6.494 2.672-2.358 0.312-4.758 0.006-6.963-0.889l-64.183-26.095c-6.97-2.916-10.372-10.859-7.617-17.989 2.916-6.97 10.859-10.374 17.989-7.619l42.789 17.343-4.052-35.495c-0.268-2.365 0.085-4.759 1.021-6.946 0.937-2.188 2.428-4.094 4.323-5.533 1.897-1.438 4.134-2.36 6.492-2.672 2.36-0.314 4.759-0.008 6.965 0.887l70.179 28.525c6.97 3.080 10.212 11.021 7.456 17.991z" />
<glyph unicode="&#xe90a;" glyph-name="calendar-days" d="M928 864h-128v32c0 17.673-14.327 32-32 32s-32-14.327-32-32v0-32h-448v32c0 17.673-14.327 32-32 32s-32-14.327-32-32v0-32h-128c-52.928 0-96-43.072-96-96v-704c0-52.928 43.072-96 96-96h832c52.928 0 96 43.072 96 96v704c0 52.928-43.072 96-96 96zM96 800h128v-32c0-17.673 14.327-32 32-32s32 14.327 32 32v0 32h448v-32c0-17.673 14.327-32 32-32s32 14.327 32 32v0 32h128c17.673 0 32-14.327 32-32v0-96h-896v96c0 17.673 14.327 32 32 32v0zM960 64c0-17.673-14.327-32-32-32v0h-832c-17.673 0-32 14.327-32 32v0 544h896zM256 416h32c17.6 0 32 14.4 32 32s-14.4 32-32 32h-32c-17.6 0-32-14.4-32-32s14.4-32 32-32zM416 416h32c17.6 0 32 14.4 32 32s-14.4 32-32 32h-32c-17.6 0-32-14.4-32-32s14.4-32 32-32zM576 416h32c17.6 0 32 14.4 32 32s-14.4 32-32 32h-32c-17.6 0-32-14.4-32-32s14.4-32 32-32zM736 416h32c17.6 0 32 14.4 32 32s-14.4 32-32 32h-32c-17.6 0-32-14.4-32-32s14.4-32 32-32zM256 288h32c17.6 0 32 14.4 32 32s-14.4 32-32 32h-32c-17.6 0-32-14.4-32-32s14.4-32 32-32zM416 288h32c17.6 0 32 14.4 32 32s-14.4 32-32 32h-32c-17.6 0-32-14.4-32-32s14.4-32 32-32zM576 288h32c17.6 0 32 14.4 32 32s-14.4 32-32 32h-32c-17.6 0-32-14.4-32-32s14.4-32 32-32zM736 288h32c17.6 0 32 14.4 32 32s-14.4 32-32 32h-32c-17.6 0-32-14.4-32-32s14.4-32 32-32zM256 160h32c17.6 0 32 14.4 32 32s-14.4 32-32 32h-32c-17.6 0-32-14.4-32-32s14.4-32 32-32zM416 160h32c17.6 0 32 14.4 32 32s-14.4 32-32 32h-32c-17.6 0-32-14.4-32-32s14.4-32 32-32zM576 160h32c17.6 0 32 14.4 32 32s-14.4 32-32 32h-32c-17.6 0-32-14.4-32-32s14.4-32 32-32z" />
<glyph unicode="&#xe90b;" glyph-name="check-circle" d="M512 960c-282.4 0-512-229.6-512-512s229.6-512 512-512 512 229.6 512 512-229.6 512-512 512zM512 0c-247 0-448 201-448 448s201 448 448 448 448-201 448-448-201-448-448-448zM759.6 620.6c12.4-12.4 12.4-32.8 0-45.2l-300-300c-6.2-6.2-14.4-9.4-22.6-9.4s-16.4 3.2-22.6 9.4l-150 150c-12.4 12.4-12.4 32.8 0 45.2s32.8 12.4 45.2 0l127.4-127.4 277.4 277.4c12.4 12.6 32.8 12.6 45.2 0z" />
<glyph unicode="&#xe90c;" glyph-name="check" horiz-adv-x="896" d="M877.2 749.2c25-25 25-65.6 0-90.6l-512-512c-25-25-65.6-25-90.6 0l-256 256c-25 25-25 65.6 0 90.6s65.6 25 90.6 0l210.8-210.6 466.8 466.6c25 25 65.6 25 90.6 0z" />
<glyph unicode="&#xe90d;" glyph-name="clock" d="M928 448c0-229.75-186.25-416-416-416s-416 186.25-416 416v0c0 229.75 186.25 416 416 416s416-186.25 416-416v0zM0 448c0-282.77 229.23-512 512-512s512 229.23 512 512v0c0 282.77-229.23 512-512 512s-512-229.23-512-512v0zM464 720v-272c0-16 8-31 21.4-40l192-128c22-14.8 51.8-8.8 66.6 13.4s8.8 51.8-13.4 66.6l-170.6 113.6v246.4c0 26.6-21.4 48-48 48s-48-21.4-48-48z" />
<glyph unicode="&#xe90e;" glyph-name="close" d="M512 864c229.75 0 416-186.25 416-416s-186.25-416-416-416v0c-229.75 0-416 186.25-416 416s186.25 416 416 416v0zM512-64c282.77 0 512 229.23 512 512s-229.23 512-512 512v0c-282.77 0-512-229.23-512-512s229.23-512 512-512v0zM350 610c-18.8-18.8-18.8-49.2 0-67.8l94-94-94-94c-18.8-18.8-18.8-49.2 0-67.8s49.2-18.8 67.8 0l94 94 94-94c18.8-18.8 49.2-18.8 67.8 0s18.8 49.2 0 67.8l-94 94 94 94c18.8 18.8 18.8 49.2 0 67.8s-49.2 18.8-67.8 0l-94-94-94 94c-18.8 18.8-49.2 18.8-67.8 0z" />
<glyph unicode="&#xe90f;" glyph-name="comments" horiz-adv-x="1280" d="M176.4 341.8c19.6 36.6 13.6 81.6-15 111.6-42.6 44.8-65.4 98.6-65.4 154.6 0 127 127.6 256 320 256s320-129 320-256-127.6-256-320-256c-26.2 0-51.6 2.6-75.6 7.2-20.8 4-42.4 1.2-61.4-8.4-8.2-4.2-16.6-8.2-25.2-12-32-14.4-65.8-27-99.8-36 5.6 9.2 10.8 18.2 15.8 27.2 2.2 3.8 4.4 7.8 6.4 11.8zM0 608c0-83.6 34.4-160.2 91.8-220.6-1.8-3.4-3.8-7-5.6-10.2-20.6-36.8-44.6-73-73.2-104.2-13.2-14-16.6-34.4-9.2-51.8 7.8-17.8 25-29.2 44.2-29.2 86 0 173 26.6 245.4 59.4 9.6 4.4 19.2 9 28.4 13.6 30.2-6 61.8-9 94.2-9 229.8 0 416 157.6 416 352s-186.2 352-416 352-416-157.6-416-352zM864 0c32.4 0 63.8 3.2 94.2 9 9.2-4.6 18.8-9.2 28.4-13.6 72.4-32.8 159.4-59.4 245.4-59.4 19.2 0 36.4 11.4 44 29s4 38-9.2 51.8c-28.4 31.2-52.4 67.4-73.2 104.2-1.8 3.4-3.8 6.8-5.6 10.2 57.6 60.6 92 137.2 92 220.8 0 188.8-175.8 343-396.4 351.6 8.2-30.4 12.4-62.4 12.4-95.6v-1.2c174.4-13.4 288-135 288-254.8 0-56-22.8-109.8-65.4-154.4-28.6-30-34.6-75.2-15-111.6 2.2-4 4.4-8 6.4-11.8 5-9 10.4-18 15.8-27.2-34 9-67.8 21.4-99.8 36-8.6 3.8-17 7.8-25.2 12-19 9.6-40.6 12.4-61.4 8.4-24.2-4.8-49.4-7.2-75.6-7.2-123.4 0-220 53-273.6 124.6-32-10.8-65.6-18.8-100-23.6 67.8-116.8 209.8-197.2 373.8-197.2z" />
<glyph unicode="&#xe910;" glyph-name="desing-tool-pot" d="M960.863 875.783c-6.515 11.562-16.937 19.867-29.64 23.45l-157.796 44.62c-12.703 3.583-26.056 2.117-37.619-4.397-11.561-6.351-19.866-16.936-23.45-29.638l-109.268-392.296c-5.699 58.463-15.795 110.735-28.662 149.494 15.959 6.351 29.64 15.795 39.736 28.17 3.745 4.562 7.816 10.749 11.072 18.24 0.164 0.163 0.325 0.326 0.325 0.651 0.164 0.163 0 0.326 0.164 0.652 9.933 23.287 13.678 60.416-14.82 113.666-20.355 38.106-17.912 68.721-12.214 87.611 3.584 11.888 0.653 24.427-7.98 33.383-8.466 8.957-20.518 12.539-32.404 9.608-77.353-18.402-128.812-58.462-149.655-113.992-0.653-1.303-0.978-2.443-1.303-3.908-8.468-24.59-11.236-51.948-7.654-81.748 4.234-35.501 24.428-64.813 55.693-82.725-14.167-34.36-26.706-82.726-35.825-136.791l-176.689 262.67c-0.326 0.488-0.814 0.814-1.14 1.303s-0.814 0.977-1.14 1.303c-0.982 0.854-2.078 1.566-3.257 2.117-0.163 0-0.163 0.163-0.163 0.163l-155.844 67.092c-6.677 2.768-14.493 2.117-20.681-1.954-6.025-4.234-9.608-11.074-9.445-18.402l3.094-169.36c0-1.789 0.489-3.42 1.14-5.048 0-0.161 0.163-0.161 0.163-0.325 0.326-0.65 0.489-1.303 0.977-1.953l137.116-203.884h-55.205c-16.936 0-30.615-13.678-30.615-30.615v-79.795c0-16.934 13.842-30.615 30.615-30.615h40.711l110.084-363.471c2.85-9.569 8.72-17.961 16.733-23.918 8.014-5.96 17.739-9.165 27.723-9.139h346.373c20.682 0 38.433 13.192 44.457 33.057l110.085 363.471h40.712c16.934 0 30.615 13.681 30.615 30.615v79.795c0 16.937-13.681 30.615-30.615 30.615h-13.356l103.245 364.937c3.584 12.376 1.956 25.73-4.396 37.292zM564.495 932.453c3.256 0.814 5.373-0.814 6.351-1.954 0.814-0.814 2.767-3.42 1.628-6.84-7.165-23.775-10.422-62.044 14.331-108.292 15.47-28.987 21.332-54.391 18.076-75.235-0.328 0.326-0.814 0.488-1.142 0.814-8.305 7.165-14.167 17.913-20.68 29.312-9.772 17.587-20.846 37.454-42.829 45.597-14.82 5.7-30.126 3.908-43.479 2.28-7.493-0.977-14.495-1.791-21.007-1.303-15.959 0.814-30.779 9.445-39.898 22.961 24.589 58.136 86.472 82.726 128.648 92.659zM426.729 762.605c-2.117 17.099-1.467 32.243 0.65 46.248 13.028-11.236 29.637-18.239 47.063-19.216 8.794-0.488 17.423 0.489 25.728 1.466 11.238 1.303 21.985 2.606 30.615-0.651 12.539-4.722 20.032-18.076 28.662-33.383 7.165-12.865 14.656-26.218 26.381-36.477 2.606-2.28 5.537-4.397 8.468-6.351-0.489-0.652-0.814-1.303-1.303-1.954-19.704-24.427-60.741-33.709-99.825-22.473-18.076 5.212-60.416 22.636-66.44 72.793zM485.514 663.596c13.353-3.909 26.87-5.701 40.223-5.701 7.654 0 14.984 0.653 22.31 1.956 15.309-45.271 26.708-113.505 31.268-186.46h-141.676c8.305 76.214 23.936 147.052 42.665 192.323 1.628-0.814 3.42-1.467 5.21-2.117zM206.723 772.702l-23.287-0.814-6.84-0.163c-1.303 0-2.605-0.326-3.745-0.652-3.583-1.14-6.677-3.908-8.305-7.491l-12.214-27.521-30.289-0.977c-5.211-0.163-9.934-3.257-12.050-8.142l-12.214-27.522-16.447-0.486-1.628 84.516c11.236 2.606 21.984 7.165 31.429 13.516 9.608 6.514 18.076 14.819 24.59 24.264l77.678-33.383-6.677-15.145zM109.993 832.466c-8.072-9.73-18.748-16.959-30.778-20.844l-0.652 34.361 31.429-13.516zM93.057 671.9l14.168 0.489c5.211 0.161 9.934 3.256 12.050 8.141l12.214 27.685 24.264 0.814 119.040-177.176c2.606-3.909 7.002-6.026 11.399-6.026 2.606 0 5.211 0.814 7.654 2.281 6.188 4.234 7.98 12.703 3.746 18.89l-120.017 178.479 8.468 19.216 7.491 0.163 22.799 0.652c4.397 0.163 8.305 2.443 10.748 6.025 0.488 0.652 0.977 1.303 1.303 2.117l5.863 13.028 177.012-263.485c0.653-0.975 1.467-1.628 2.281-2.278-1.139-9.119-2.281-18.24-3.256-27.523h-183.691l-133.533 198.51zM698.516-23.452c-2.442-8.141-9.769-13.678-18.401-13.678h-346.373c-8.468 0-15.959 5.537-18.401 13.678l-107.641 355.494h598.459l-107.643-355.494zM878.787 442.614v-79.795c0-1.953-1.464-3.42-3.418-3.42h-736.878c-1.954 0-3.42 1.467-3.42 3.42v79.795c0 1.953 1.466 3.42 3.42 3.42h736.714c1.953 0 3.581-1.467 3.581-3.42zM619.049 473.39l119.69 428.937c1.631 5.7 5.376 10.422 10.424 13.19 5.21 2.931 11.072 3.583 16.773 1.954l157.796-44.62c5.701-1.628 10.422-5.374 13.192-10.422 2.931-5.211 3.581-11.074 1.953-16.773l-8.305-29.475-59.927 17.099c-1.723 0.511-3.528 0.67-5.312 0.469s-3.51-0.759-5.074-1.64c-1.564-0.881-2.936-2.067-4.035-3.489-1.096-1.421-1.897-3.048-2.353-4.785-2.117-7.165 2.117-14.819 9.444-16.773l60.091-16.936-12.864-45.76-27.195 7.654c-1.723 0.51-3.53 0.67-5.312 0.468-1.784-0.201-3.51-0.759-5.076-1.64-1.564-0.881-2.936-2.067-4.032-3.489-1.098-1.421-1.897-3.048-2.353-4.785-2.117-7.328 2.117-14.819 9.444-16.773l27.195-7.654-13.028-45.759-60.088 16.934c-1.723 0.512-3.53 0.671-5.312 0.471-1.784-0.202-3.51-0.76-5.076-1.641-1.564-0.881-2.936-2.068-4.032-3.489-1.098-1.421-1.897-3.049-2.353-4.785-2.117-7.329 2.115-14.82 9.444-16.773l60.091-16.937-12.867-45.757-27.195 7.652c-1.72 0.512-3.528 0.671-5.312 0.468-1.784-0.2-3.51-0.758-5.074-1.638s-2.936-2.068-4.032-3.489c-1.098-1.421-1.9-3.049-2.355-4.785-2.117-7.329 2.117-14.82 9.446-16.773l27.195-7.654-13.028-45.921-0.978 0.486-59.113 16.773c-1.72 0.512-3.528 0.671-5.312 0.468-1.784-0.2-3.51-0.758-5.074-1.638s-2.936-2.068-4.032-3.489c-1.098-1.421-1.9-3.049-2.355-4.785-2.117-7.165 2.117-14.82 9.446-16.773l59.113-16.773c0.325-0.164 0.65 0 0.975-0.164l-8.141-28.823-215.119-0.164z" />
<glyph unicode="&#xe911;" glyph-name="dobble-angles-down" horiz-adv-x="896" d="M493.2 18.8c-25-25-65.6-25-90.6 0l-320 320c-25 25-25 65.6 0 90.6s65.6 25 90.6 0l274.8-274.8 274.8 274.6c25 25 65.6 25 90.6 0s25-65.6 0-90.6l-320-320zM813.2 722.8l-320-320c-25-25-65.6-25-90.6 0l-320 320c-25 25-25 65.6 0 90.6s65.6 25 90.6 0l274.8-274.8 274.8 274.6c25 25 65.6 25 90.6 0s25-65.6 0-90.6z" />
<glyph unicode="&#xe912;" glyph-name="dobble-angles-left" d="M82.8 493.2c-25-25-25-65.6 0-90.6l320-320c25-25 65.6-25 90.6 0s25 65.6 0 90.6l-274.8 274.8 274.6 274.8c25 25 25 65.6 0 90.6s-65.6 25-90.6 0l-320-320zM786.8 813.2l-320-320c-25-25-25-65.6 0-90.6l320-320c25-25 65.6-25 90.6 0s25 65.6 0 90.6l-274.8 274.8 274.6 274.8c25 25 25 65.6 0 90.6s-65.6 25-90.6 0z" />
<glyph unicode="&#xe913;" glyph-name="dobble-angles-right" d="M941.2 402.8c25 25 25 65.6 0 90.6l-320 320c-25 25-65.6 25-90.6 0s-25-65.6 0-90.6l274.8-274.8-274.6-274.8c-25-25-25-65.6 0-90.6s65.6-25 90.6 0l320 320zM237.2 82.8l320 320c25 25 25 65.6 0 90.6l-320 320c-25 25-65.6 25-90.6 0s-25-65.6 0-90.6l274.8-274.8-274.6-274.8c-25-25-25-65.6 0-90.6s65.6-25 90.6 0z" />
<glyph unicode="&#xe914;" glyph-name="dobble-angles-up" horiz-adv-x="896" d="M493.2 877.2c-25 25-65.6 25-90.6 0l-320-320c-25-25-25-65.6 0-90.6s65.6-25 90.6 0l274.8 274.8 274.8-274.6c25-25 65.6-25 90.6 0s25 65.6 0 90.6l-320 320zM813.2 173.2l-320 320c-25 25-65.6 25-90.6 0l-320-320c-25-25-25-65.6 0-90.6s65.6-25 90.6 0l274.8 274.8 274.8-274.6c25-25 65.6-25 90.6 0s25 65.6 0 90.6z" />
<glyph unicode="&#xe915;" glyph-name="envelope" d="M128 736c-17.6 0-32-14.4-32-32v-44.2l345-283.2c41.4-34 100.8-34 142.2 0l344.8 283.2v44.2c0 17.6-14.4 32-32 32h-768zM96 535.6v-343.6c0-17.6 14.4-32 32-32h768c17.6 0 32 14.4 32 32v343.6l-284-233.2c-76.8-63-187.4-63-264 0l-284 233.2zM0 704c0 70.6 57.4 128 128 128h768c70.6 0 128-57.4 128-128v-512c0-70.6-57.4-128-128-128h-768c-70.6 0-128 57.4-128 128v512z" />
<glyph unicode="&#xe916;" glyph-name="facebook" d="M1008 448c0 274-222 496-496 496s-496-222-496-496c0-247.56 181.38-452.76 418.5-490v346.62h-126v143.38h126v109.28c0 124.3 74 192.96 187.34 192.96 54.28 0 111.040-9.68 111.040-9.68v-122h-62.56c-61.6 0-80.82-38.24-80.82-77.46v-93.1h137.56l-22-143.38h-115.56v-346.62c237.12 37.24 418.5 242.44 418.5 490z" />
<glyph unicode="&#xe917;" glyph-name="folder-open" horiz-adv-x="1152" d="M768 0h96c22.8 0 43.8 12 55.2 31.8l224 384c11.6 19.8 11.6 44.2 0.2 64.2s-32.4 32-55.4 32h-800c-22.8 0-43.8-12-55.2-31.8l-136.8-234.4v522.2c0 17.6 14.4 32 32 32h235c8.4 0 16.6-3.4 22.6-9.4l53-53c42-42 99-65.6 158.4-65.6h235c17.6 0 32-14.4 32-32v-64h96v64c0 70.6-57.4 128-128 128h-235c-34 0-66.6 13.4-90.6 37.4l-53 53.2c-24 24-56.6 37.4-90.6 37.4h-234.8c-70.6 0-128-57.4-128-128v-640c0-70.6 57.4-128 128-128h640z" />
<glyph unicode="&#xe918;" glyph-name="heart" d="M451.6 23.6l-5 4.6-350.4 325.4c-61.4 57-96.2 137-96.2 220.8v6.6c0 140.8 100 261.6 238.4 288 78.8 15.2 159.4-3 223.6-48.2 18-12.8 34.8-27.6 50-44.6 8.4 9.6 17.4 18.4 27 26.6 7.4 6.4 15 12.4 23 18 0 0 0 0 0 0 64.2 45.2 144.8 63.4 223.6 48.4 138.4-26.4 238.4-147.4 238.4-288.2v-6.6c0-83.8-34.8-163.8-96.2-220.8l-355.4-330c-16.4-15.2-38-23.8-60.4-23.8s-44 8.4-60.4 23.8zM478.2 670c-0.8 0.6-1.4 1.4-2 2.2l-35.6 40c0 0-0.2 0.2-0.2 0.2s0 0 0 0c-46.2 51.8-116 75.4-184 62.4-93.2-17.8-160.4-99-160.4-193.8v-6.6c0-57 23.8-111.6 65.6-150.4l350.4-325.4 350.4 325.4c41.8 38.8 65.6 93.4 65.6 150.4v6.6c0 94.6-67.2 176-160.2 193.8-68 13-138-10.8-184-62.4 0 0 0 0-0.2-0.2s0 0-0.2-0.2l-35.6-40c-0.6-0.8-1.4-1.4-2-2.2-9-9-21.2-14-33.8-14s-24.8 5-33.8 14z" />
<glyph unicode="&#xe919;" glyph-name="instagram" horiz-adv-x="896" d="M448.2 678c-127.2 0-229.8-102.6-229.8-229.8s102.6-229.8 229.8-229.8 229.8 102.6 229.8 229.8-102.6 229.8-229.8 229.8zM448.2 298.8c-82.2 0-149.4 67-149.4 149.4s67 149.4 149.4 149.4 149.4-67 149.4-149.4-67.2-149.4-149.4-149.4zM741 687.4c0-29.8-24-53.6-53.6-53.6-29.8 0-53.6 24-53.6 53.6s24 53.6 53.6 53.6 53.6-24 53.6-53.6zM893.2 633c-3.4 71.8-19.8 135.4-72.4 187.8-52.4 52.4-116 68.8-187.8 72.4-74 4.2-295.8 4.2-369.8 0-71.6-3.4-135.2-19.8-187.8-72.2s-68.8-116-72.4-187.8c-4.2-74-4.2-295.8 0-369.8 3.4-71.8 19.8-135.4 72.4-187.8s116-68.8 187.8-72.4c74-4.2 295.8-4.2 369.8 0 71.8 3.4 135.4 19.8 187.8 72.4 52.4 52.4 68.8 116 72.4 187.8 4.2 74 4.2 295.6 0 369.6zM797.6 184c-15.6-39.2-45.8-69.4-85.2-85.2-59-23.4-199-18-264.2-18s-205.4-5.2-264.2 18c-39.2 15.6-69.4 45.8-85.2 85.2-23.4 59-18 199-18 264.2s-5.2 205.4 18 264.2c15.6 39.2 45.8 69.4 85.2 85.2 59 23.4 199 18 264.2 18s205.4 5.2 264.2-18c39.2-15.6 69.4-45.8 85.2-85.2 23.4-59 18-199 18-264.2s5.4-205.4-18-264.2z" />
<glyph unicode="&#xe91a;" glyph-name="layout" d="M357.984 887.2h-197.984c-52.997-0.055-95.945-43.003-96-95.995v-197.957c0.055-52.997 43.003-95.945 95.995-96h197.989c52.997 0.055 95.945 43.003 96 95.995v197.957c-0.055 52.997-43.003 95.945-95.995 96h-0.005zM389.984 593.248c-0.018-17.666-14.334-31.982-31.998-32h-197.986c-17.666 0.018-31.982 14.334-32 31.998v197.954c0.018 17.666 14.334 31.982 31.998 32h197.986c17.666-0.018 31.982-14.334 32-31.998v-0.002zM864 887.2h-197.984c-52.997-0.055-95.945-43.003-96-95.995v-197.957c0.055-52.997 43.003-95.945 95.995-96h197.989c52.997 0.055 95.945 43.003 96 95.995v197.957c-0.055 52.997-43.003 95.945-95.995 96h-0.005zM896 593.248c-0.018-17.666-14.334-31.982-31.998-32h-197.986c-17.666 0.018-31.982 14.334-32 31.998v197.954c0.018 17.666 14.334 31.982 31.998 32h197.986c17.666-0.018 31.982-14.334 32-31.998v-0.002zM357.984 398.72h-197.984c-52.997-0.055-95.945-43.003-96-95.995v-197.925c0.055-52.997 43.003-95.945 95.995-96h197.989c52.997 0.055 95.945 43.003 96 95.995v197.925c-0.055 52.997-43.003 95.945-95.995 96h-0.005zM389.984 104.8c-0.018-17.666-14.334-31.982-31.998-32h-197.986c-17.666 0.018-31.982 14.334-32 31.998v197.922c0.018 17.666 14.334 31.982 31.998 32h197.986c17.666-0.018 31.982-14.334 32-31.998v-0.002zM864 398.72h-197.984c-52.997-0.055-95.945-43.003-96-95.995v-197.925c0.055-52.997 43.003-95.945 95.995-96h197.989c52.997 0.055 95.945 43.003 96 95.995v197.925c-0.055 52.997-43.003 95.945-95.995 96h-0.005zM896 104.8c-0.018-17.666-14.334-31.982-31.998-32h-197.986c-17.666 0.018-31.982 14.334-32 31.998v197.922c0.018 17.666 14.334 31.982 31.998 32h197.986c17.666-0.018 31.982-14.334 32-31.998v-0.002z" />
<glyph unicode="&#xe91b;" glyph-name="linkedin-in" horiz-adv-x="896" d="M200.56 64h-185.76v598.2h185.76zM107.58 743.8c-59.4 0-107.58 49.2-107.58 108.6 0 59.415 48.165 107.58 107.58 107.58s107.58-48.165 107.58-107.58v0c0-59.4-48.2-108.6-107.58-108.6zM895.8 64h-185.36v291.2c0 69.4-1.4 158.4-96.58 158.4-96.58 0-111.38-75.4-111.38-153.4v-296.2h-185.56v598.2h178.16v-81.6h2.6c24.8 47 85.38 96.6 175.76 96.6 188 0 222.56-123.8 222.56-284.6v-328.6z" />
<glyph unicode="&#xe91c;" glyph-name="location-dot" horiz-adv-x="768" d="M431.4-38.4c102.6 128.4 336.6 439.6 336.6 614.4 0 212-172 384-384 384s-384-172-384-384c0-174.8 234-486 336.6-614.4 24.6-30.6 70.2-30.6 94.8 0zM384 704c70.692 0 128-57.308 128-128s-57.308-128-128-128v0c-70.692 0-128 57.308-128 128s57.308 128 128 128v0z" />
<glyph unicode="&#xe91d;" glyph-name="magnifying-glass" d="M1014.294-8.29l-264.38 260.155c69.233 75.219 111.771 174.698 111.771 284.164-0.033 234.168-192.91 423.971-430.854 423.971s-430.821-189.803-430.821-423.971 192.877-423.971 430.821-423.971c102.808 0 197.102 35.56 271.168 94.678l265.406-261.181c12.932-12.74 33.927-12.74 46.859 0 6.003 5.867 9.726 14.045 9.726 23.092 0 9.033-3.71 17.199-9.69 23.057l-0.005 0.005zM430.831 177.289c-201.326 0-364.533 160.613-364.533 358.74s163.207 358.74 364.533 358.74c201.328 0 364.533-160.613 364.533-358.74s-163.205-358.74-364.533-358.74z" />
<glyph unicode="&#xe91e;" glyph-name="pencil-compus" d="M225.226 173.894l8.743-3.135-17.323-47.512c-2.528-6.919-3.669-14.268-3.359-21.627 0.312-7.36 2.070-14.586 5.174-21.268 4.619-9.733 11.713-17.816 20.622-23.426l-17.487-48.172c-2.31-6.27 0.989-13.199 7.259-15.508 3.020-1.049 6.331-0.877 9.229 0.479 2.896 1.356 5.148 3.789 6.278 6.78l17.488 48.172c2.473-0.329 4.784-0.66 7.258-0.66 22.933 0 44.379 14.188 52.627 36.955l17.323 47.347 8.743-3.133c2.804-0.991 5.61-1.486 8.414-1.486 10.393 0 20.291 6.434 24.251 16.828l36.128 99.314c27.386-15.343 54.937-23.921 82.323-25.901v-17.158c0-6.763 5.445-12.208 12.208-12.208 6.765 0 12.209 5.445 12.209 12.208v17.158c27.55 1.98 54.937 10.558 82.322 25.901l36.13-99.15c3.794-10.393 13.528-16.827 24.086-16.827 2.804 0 5.774 0.495 8.743 1.484l8.58 3.135 17.487-47.512c5.114-14.024 15.343-25.242 29.036-31.676 7.589-3.464 15.508-5.279 23.591-5.279 2.475 0 4.784 0.331 7.259 0.66l17.487-48.172c1.815-4.95 6.434-7.919 11.384-7.919 1.319 0 2.804 0.165 4.124 0.66 6.268 2.31 9.569 9.238 7.258 15.508l-17.487 48.172c21.611 13.859 31.675 41.244 22.602 66.321l-17.323 47.512 8.58 3.135c6.434 2.31 11.548 6.929 14.517 13.199 2.97 6.268 3.135 13.197 0.826 19.631l-28.541 78.364c-1.133 2.966-3.386 5.37-6.273 6.692s-6.179 1.456-9.166 0.373c-2.985-1.081-5.427-3.293-6.798-6.158s-1.561-6.153-0.529-9.156l28.54-78.364c0.165-0.495-0.165-1.484-0.824-1.649l-122.412-44.542c-0.66-0.331-1.486 0-1.815 0.824l-131.485 361.296c23.456 3.285 45.87 11.814 65.579 24.951 19.706 13.139 36.201 30.548 48.254 50.937l24.251-66.65c1.815-4.948 6.434-7.918 11.384-7.918 1.319 0 2.804 0.164 4.124 0.66 6.268 2.31 9.567 9.238 7.258 15.507l-32.664 89.747c5.114 15.508 7.918 32.006 7.918 49.163 0 62.525-36.625 116.637-89.581 142.209v78.363c0 18.147-7.094 35.47-20.127 48.668-12.86 12.753-30.227 19.925-48.338 19.962-18.188-0.044-35.619-7.288-48.481-20.149-12.86-12.861-20.105-30.292-20.149-48.48v-78.528c-52.957-25.571-89.581-79.683-89.581-142.209 0-17.158 2.804-33.655 7.919-48.998l-150.788-414.581c-2.475-6.434-2.145-13.364 0.66-19.632 2.804-6.434 7.919-11.218 14.353-13.528zM783.007 114.998c5.939-16.497-2.475-34.646-18.972-40.749-7.919-2.97-16.663-2.475-24.251 0.989-7.754 3.63-13.528 9.898-16.332 17.983l-17.323 47.347 59.556 21.777 17.323-47.347zM299.134 93.386c-2.968-7.918-8.743-14.352-16.332-17.981-7.754-3.63-16.332-3.959-24.251-0.991-7.918 2.97-14.352 8.745-17.981 16.499-3.63 7.752-3.961 16.332-0.991 24.25l17.323 47.514 59.721-21.777-17.488-47.514zM523.5 242.028v16.663c0 6.765-5.443 12.209-12.208 12.209s-12.208-5.445-12.208-12.209v-16.663c-24.582 1.98-49.163 10.394-73.909 24.912l86.117 236.574 86.117-236.409c-24.912-14.517-49.492-22.931-73.909-25.077zM467.079 891.37c0 24.416 19.962 44.378 44.379 44.378 11.713 0 22.931-4.619 31.345-12.868 8.413-8.579 13.033-19.632 13.033-31.51v-69.125c-14.024 4.124-28.872 6.434-44.379 6.434-15.343 0-30.191-2.31-44.213-6.434v69.125h-0.165zM511.293 804.429c73.744 0 133.794-60.051 133.794-133.795s-60.051-133.794-133.794-133.794c-73.744 0-133.794 60.051-133.794 133.794s60.051 133.795 133.794 133.795zM375.353 589.961c12.090-20.359 28.592-37.746 48.293-50.88 19.7-13.134 42.097-21.68 65.539-25.008l-131.319-360.966c-0.329-0.824-0.989-1.155-1.649-0.989l-122.578 44.708-0.659 1.649 142.372 391.486zM511.296 604.807c36.294 0 65.824 29.531 65.824 65.826 0 36.294-29.531 65.66-65.824 65.66-36.295 0-65.826-29.531-65.826-65.826s29.531-65.66 65.826-65.66zM511.296 712.042c22.931 0 41.409-18.643 41.409-41.574s-18.643-41.573-41.409-41.573c-22.931 0-41.574 18.642-41.574 41.573s18.643 41.574 41.574 41.574zM511.296 46.037c-70.114 0-137.095-1.484-199.291-4.619-6.763-0.329-11.877-5.939-11.548-12.702 0.329-6.765 5.939-12.044 12.704-11.549 61.7 2.97 128.35 4.455 197.969 4.455 71.105 0 141.879-1.651 204.405-4.784h0.66c1.591-0.033 3.174 0.249 4.658 0.827 1.484 0.58 2.839 1.446 3.987 2.549 1.15 1.103 2.070 2.421 2.71 3.88s0.985 3.029 1.018 4.622c0.032 1.591-0.249 3.174-0.829 4.658s-1.446 2.839-2.549 3.987c-1.103 1.148-2.421 2.070-3.88 2.71-1.459 0.638-3.028 0.985-4.621 1.018-62.856 3.133-133.96 4.948-205.394 4.948zM881.168 26.901c-6.598 0.826-12.702-3.63-13.692-10.229-0.991-6.598 3.628-12.868 10.227-13.692 32.5-4.619 49.328-9.074 58.072-12.044-39.099-14.022-191.206-30.685-424.481-30.685s-385.381 16.497-424.481 30.685c11.548 4.124 37.614 10.558 95.356 16.663 6.599 0.66 11.548 6.763 10.723 13.362-0.369 3.185-1.979 6.098-4.48 8.105s-5.693 2.948-8.883 2.618c-114.823-12.373-124.391-26.89-124.391-40.749 0-11.384 0-28.87 140.889-42.398 84.138-8.083 196.155-12.538 315.102-12.538 118.948 0 230.8 4.455 315.104 12.538 141.054 13.693 141.054 31.015 141.054 42.398 0 15.013-14.024 25.735-86.118 35.964zM658.287 371.039l7.589-93.54c0.495-6.93 4.784-12.869 11.218-15.508 2.31-0.989 4.784-1.486 7.259-1.486 4.29 0 8.414 1.486 11.878 4.29l72.094 60.051c5.939 4.95 10.722 11.384 13.692 18.478l132.805 313.287c6.765 16.168-0.824 34.975-17.158 41.904l-61.040 25.737c-7.919 3.299-16.497 3.464-24.417 0.164-7.918-3.299-14.022-9.403-17.321-17.158l-132.97-313.287c-3.135-7.423-4.29-15.177-3.63-22.931zM784.327 620.317l25.572-10.724-44.213-104.1c-2.639-6.103 0.331-13.362 6.434-15.837 1.473-0.63 3.056-0.966 4.658-0.983 1.602-0.019 3.192 0.28 4.679 0.877 1.487 0.599 2.84 1.484 3.984 2.606s2.056 2.459 2.681 3.934l44.213 104.1 27.221-11.384-95.52-225.19-75.229 31.675 95.52 225.026zM688.972 290.531l-6.599 81.003 68.959-29.036-62.36-51.967zM817.158 697.525c0.824 1.815 2.31 3.299 4.124 4.124 0.989 0.329 1.98 0.495 2.97 0.495s1.98-0.165 2.97-0.66l61.040-25.735c3.961-1.649 5.775-6.105 4.124-10.064l-23.261-55.102-75.229 31.676 23.262 55.266z" />
<glyph unicode="&#xe91f;" glyph-name="phone-volume" d="M560 960c256.2 0 464-207.8 464-464 0-26.6-21.4-48-48-48s-48 21.4-48 48c0 203.2-164.8 368-368 368-26.6 0-48 21.4-48 48s21.4 48 48 48zM576 576c35.346 0 64-28.654 64-64s-28.654-64-64-64v0c-35.346 0-64 28.654-64 64s28.654 64 64 64v0zM512 720c0 26.6 21.4 48 48 48 150.2 0 272-121.8 272-272 0-26.6-21.4-48-48-48s-48 21.4-48 48c0 97.2-78.8 176-176 176-26.6 0-48 21.4-48 48zM235 957.2c38.8 10.6 79.4-9.2 94.8-46.4l80-192c13.6-32.6 4.2-70.4-23.2-92.6l-98.6-80.8c66.6-140.8 180.6-254.8 321.4-321.4l80.6 98.6c22.4 27.4 60 36.8 92.6 23.2l192-80c37.2-15.4 57-56 46.4-94.8l-48-176c-9.4-34.8-41-59-77-59-494.8 0-896 401.2-896 896 0 36 24.2 67.6 59 77.2l176 48z" />
<glyph unicode="&#xe920;" glyph-name="phone" d="M329.8 910.8c-15.4 37.2-56 57-94.8 46.4l-176-48c-34.8-9.6-59-41.2-59-77.2 0-494.8 401.2-896 896-896 36 0 67.6 24.2 77.2 59l48 176c10.6 38.8-9.2 79.4-46.4 94.8l-192 80c-32.6 13.6-70.4 4.2-92.6-23.2l-80.8-98.6c-140.8 66.6-254.8 180.6-321.4 321.4l98.6 80.6c27.4 22.4 36.8 60 23.2 92.6l-80 192z" />
<glyph unicode="&#xe921;" glyph-name="pinterest-p" horiz-adv-x="768" d="M408 947c-205.2 0-408-136.8-408-358.2 0-140.8 79.2-220.8 127.2-220.8 19.8 0 31.2 55.2 31.2 70.8 0 18.6-47.4 58.2-47.4 135.6 0 160.8 122.4 274.8 280.8 274.8 136.2 0 237-77.4 237-219.6 0-106.2-42.6-305.4-180.6-305.4-49.8 0-92.4 36-92.4 87.6 0 75.6 52.8 148.8 52.8 226.8 0 132.4-187.8 108.4-187.8-51.6 0-33.6 4.2-70.8 19.2-101.4-27.6-118.8-84-295.8-84-418.2 0-37.8 5.4-75 9-112.8 6.8-7.6 3.4-6.8 13.8-3 100.8 138 97.2 165 142.8 345.6 24.6-46.8 88.2-72 138.6-72 212.4 0 307.8 207 307.8 393.6 0 198.6-171.6 328.2-360 328.2z" />
<glyph unicode="&#xe922;" glyph-name="play-t" horiz-adv-x="768" d="M146 882c-29.6 18.2-66.8 18.8-97 1.8s-49-49-49-83.8v-704c0-34.8 18.8-66.8 49-83.8s67.4-16.2 97 1.8l576 352c28.6 17.4 46 48.4 46 82s-17.4 64.4-46 82l-576 352z" />
<glyph unicode="&#xe923;" glyph-name="quote-right" d="M517.565 668.079l-298.939 163.921-218.627-596.49 116.006-54.641 401.56 487.21zM985.042 551.209l-298.936 163.921-218.628-596.49 116.007-54.641 401.556 487.209z" />
<glyph unicode="&#xe924;" glyph-name="share-nodes" d="M723.647 271.211c-49.062 0-93.266-21.186-123.944-54.89l-275.945 170.906c7.248 17.995 11.452 38.861 11.452 60.709 0 0.023 0 0.046 0 0.068v-0.004c0 0.023 0 0.049 0 0.076 0 21.844-4.204 42.706-11.848 61.82l0.396-1.123 275.945 170.914c30.68-33.704 74.882-54.9 123.944-54.9 92.422 0 167.61 75.188 167.61 167.61s-75.188 167.602-167.61 167.602c-92.42 0-167.608-75.188-167.608-167.61 0-0.009 0-0.021 0-0.032 0-21.859 4.204-42.735 11.849-61.865l-0.397 1.125-275.937-170.908c-30.68 33.704-74.882 54.9-123.944 54.9-92.422 0-167.61-75.196-167.61-167.61 0-92.42 75.188-167.61 167.61-167.61 49.060 0 93.266 21.188 123.944 54.9l275.939-170.908c-7.249-18.007-11.454-38.886-11.454-60.747 0-0.012 0-0.023 0-0.035v0.002c0-92.414 75.186-167.602 167.608-167.602s167.61 75.188 167.61 167.6c0 92.424-75.188 167.61-167.61 167.61zM617.155 792.39c0 58.72 47.774 106.492 106.492 106.492s106.492-47.772 106.492-106.492c0-58.72-47.772-106.492-106.492-106.492s-106.492 47.774-106.492 106.492zM167.61 341.509c-58.728 0-106.5 47.774-106.5 106.492s47.772 106.492 106.5 106.492c58.72 0 106.484-47.774 106.484-106.492s-47.766-106.492-106.484-106.492zM617.155 103.61c0 58.72 47.774 106.494 106.492 106.494s106.492-47.774 106.492-106.492c0-58.72-47.772-106.492-106.492-106.492s-106.492 47.772-106.492 106.492z" />
<glyph unicode="&#xe925;" glyph-name="skype" horiz-adv-x="896" d="M849.4 360.4c5.8 28 9.4 57.8 9.4 87.6 0 227-183.8 410.6-410.6 410.6-29.8 0-59.4-3.4-87.6-9.4-38 29.4-85.2 46.8-136.6 46.8-123.6 0-224-100.4-224-224 0-51.4 17.4-98.6 46.6-136.4-5.8-28-9.4-57.8-9.4-87.6 0-227 183.8-410.6 410.6-410.6 29.8 0 59.4 3.4 87.6 9.4 38-29.2 85.2-46.6 136.4-46.6 123.6 0 224 100.4 224 224 0.2 51.2-17.2 98.4-46.4 136.2zM460.2 177.4c-131.2 0-241 58.4-241 130 0 32 18 61.2 59 61.2 62.4 0 68.2-89.8 176.2-89.8 51.4 0 84.6 22.8 84.6 52.6 0 37.4-32 43.2-84 56-125 30.8-235.6 44-235.6 174.4 0 118.4 117.2 162.2 218.2 162.2 110.2 0 221.6-43.8 221.6-110.8 0-33.8-22.8-63.6-60.6-63.6-56.6 0-58.4 67-150 67-51.4 0-84-14-84-45 0-39.6 41.6-43.6 138.2-66 82.8-18.6 181.4-53.6 181.4-155.2 0-118.2-114.2-173-224-173z" />
<glyph unicode="&#xe926;" glyph-name="strong-brin" d="M202.455 553.736c-6.522-11.525-10.081-24.492-10.356-37.732-0.277-13.242 2.74-26.344 8.776-38.133 6.037-11.788 14.906-21.892 25.811-29.409 10.905-7.515 23.506-12.205 36.671-13.65-0.321-3.197-0.64-6.234-0.64-9.431 0-44.116 35.805-79.922 79.922-79.922 7.513 0 15.025 1.119 22.219 3.197 9.59-33.407 40.44-57.544 76.725-57.544 27.014 0 51.31 13.587 65.855 34.527 7.393-10.625 17.24-19.311 28.704-25.322s24.208-9.167 37.151-9.205c36.285 0 67.135 24.137 76.725 57.544 11.912-3.468 24.466-4.114 36.67-1.892 12.205 2.222 23.725 7.254 33.65 14.697s17.98 17.093 23.531 28.188 8.444 23.327 8.45 35.733c0 3.197-0.159 6.395-0.639 9.431 13.165 1.444 25.765 6.135 36.67 13.65 10.906 7.516 19.774 17.62 25.811 29.409s9.052 24.891 8.777 38.133c-0.277 13.24-3.835 26.207-10.358 37.732 16.943 14.706 27.813 35.965 27.813 60.103 0 29.89-16.784 55.785-41.081 69.531 7.993 12.629 12.308 27.014 12.308 42.199 0 36.604-24.775 67.934-58.822 77.205 0.48 3.836 0.799 7.673 0.799 11.829 0 44.117-35.805 80.082-79.922 80.082-8.152 0-16.144-1.279-23.816-3.676-5.433 15.684-15.62 29.284-29.141 38.91s-29.708 14.798-46.306 14.798c-27.813 0-52.429-14.226-66.814-35.805-7.325 11.011-17.258 20.041-28.915 26.288s-24.675 9.516-37.9 9.517c-34.686 0-64.578-22.058-75.447-53.708-7.672 2.398-15.825 3.676-24.136 3.676-44.118 0-79.922-35.965-79.922-80.082 0-3.996 0.319-7.992 0.96-11.829-16.878-4.702-31.758-14.788-42.377-28.725-10.618-13.936-16.393-30.958-16.447-48.48 0-15.186 4.475-29.571 12.308-42.199-24.457-13.746-41.079-39.641-41.079-69.531 0-24.137 10.868-45.397 27.812-60.103zM506.16 742.033c78.643 0 142.582-63.937 142.582-142.581s-63.939-142.581-142.582-142.581c-78.643 0-142.581 63.937-142.581 142.581s63.937 142.581 142.581 142.581zM574.414 917.863c27.014 0 49.552-20.14 52.589-46.994 0.16-0.959 0.639-1.758 0.96-2.717-0.321-1.119-0.64-2.238-0.64-3.517 0-29.252-23.816-52.909-52.909-52.909-7.512 0-13.427-6.074-13.427-13.427 0-7.513 6.074-13.427 13.427-13.427 43.798 0 79.603 35.646 79.922 79.443 6.234 2.398 12.788 3.836 19.661 3.836 7.818-0.019 15.533-1.761 22.6-5.102s13.31-8.199 18.285-14.227c4.976-6.029 8.562-13.080 10.501-20.652s2.187-15.479 0.723-23.157c-40.601-3.836-72.409-37.723-72.409-79.282 0-7.513 6.074-13.428 13.427-13.428s13.427 6.075 13.427 13.428c0 29.251 23.818 53.068 53.069 53.068 0.478 0 0.799 0.16 1.119 0.16 0.159 0 0.48-0.16 0.639-0.16 13.414-0.969 25.964-6.98 35.128-16.826 9.163-9.844 14.26-22.794 14.264-36.242 0-12.149-4.316-23.497-11.828-32.928-3.997 0.639-8.152 1.279-12.468 1.279-25.576 0-49.872-12.308-64.897-33.089-4.315-6.074-3.037-14.385 3.037-18.861s14.386-3.037 18.863 3.037c4.935 6.79 11.4 12.325 18.869 16.156s15.734 5.854 24.128 5.903c13.829-0.339 26.976-6.071 36.636-15.971 9.659-9.901 15.067-23.184 15.067-37.017s-5.407-27.116-15.067-37.017c-9.661-9.899-22.808-15.632-36.636-15.971-7.512 0-13.427-6.074-13.427-13.427 0-7.513 6.074-13.427 13.427-13.427 10.231 0 19.98 2.077 29.092 5.594 4.316-7.833 6.554-16.463 6.554-25.415 0-29.251-23.818-52.909-52.909-53.068h-0.16c-22.698 0-42.838 14.385-50.191 35.644-0.576 1.669-1.476 3.208-2.649 4.529s-2.592 2.398-4.182 3.17c-1.588 0.772-3.312 1.223-5.076 1.328-1.762 0.105-3.527-0.138-5.196-0.714-1.669-0.578-3.208-1.478-4.529-2.65s-2.398-2.592-3.17-4.18c-0.772-1.589-1.224-3.313-1.33-5.076-0.104-1.764 0.139-3.529 0.715-5.198 8.952-25.895 30.53-44.756 56.425-51.151 0.958-3.836 1.438-7.672 1.438-11.667 0-29.251-23.816-53.069-53.068-53.069-6.714 0-13.268 1.279-19.341 3.836-1.599 23.818-13.587 45.875-33.087 59.942-2.907 2.091-6.523 2.945-10.058 2.375-3.535-0.569-6.7-2.514-8.803-5.412-4.316-6.074-3.038-14.386 3.037-18.861 6.841-4.935 12.419-11.417 16.28-18.916 3.861-7.501 5.895-15.806 5.938-24.241 0-0.16 0.16-0.48 0.16-0.64-0.16-0.639-0.321-1.278-0.321-2.077-0.683-13.575-6.555-26.369-16.401-35.739s-22.915-14.6-36.506-14.613c-25.895 0-48.273 19.022-52.27 44.437v67.934c86.476 7.672 154.571 80.401 154.571 168.795s-68.094 161.124-154.571 168.796v96.546c0.093 14.144 5.774 27.677 15.806 37.648 10.031 9.971 23.598 15.572 37.741 15.58zM254.565 666.907c20.621 0 39.482-11.988 48.114-30.689 3.196-6.714 11.189-9.59 17.902-6.554 6.714 3.196 9.59 11.189 6.554 17.902-6.463 13.795-16.72 25.464-29.571 33.644-12.85 8.181-27.764 12.534-42.999 12.552-4.315 0-8.311-0.64-12.467-1.279-7.513 9.59-11.829 20.94-11.829 32.927 0 27.813 21.739 51.151 49.392 53.069 0.16 0 0.48 0.159 0.64 0.159 0.478 0 0.799-0.159 1.119-0.159 29.251 0 53.068-23.816 53.068-53.069 0-7.512 6.075-13.427 13.427-13.427s13.428 6.075 13.428 13.427c0 41.561-31.969 75.447-72.411 79.284-1.758 9.347-0.981 18.995 2.248 27.941 3.231 8.946 8.797 16.864 16.121 22.932s16.139 10.065 25.53 11.575c9.39 1.51 19.014 0.479 27.871-2.987 0.16-21.103 8.647-41.289 23.615-56.167s35.204-23.243 56.308-23.276c7.513 0 13.427 6.074 13.427 13.426 0 7.513-6.074 13.427-13.427 13.427-29.251 0-53.068 23.817-53.068 52.909 0 1.279-0.319 2.238-0.64 3.517 0.321 0.959 0.96 1.758 1.119 2.877 3.038 26.854 25.576 46.994 52.589 46.994 29.412 0 53.389-23.817 53.389-53.228v-96.387c-87.914-6.233-157.607-79.443-157.607-168.955s69.693-162.721 157.607-168.955v-67.454c-3.677-25.734-26.214-45.076-52.429-45.076-13.601-0.015-26.685 5.206-36.537 14.582s-15.715 22.184-16.372 35.768c0 0.64-0.16 1.12-0.319 1.759 0 0.319 0.159 0.639 0.159 0.958 0 18.863 10.231 36.445 26.534 46.036 6.395 3.677 8.632 11.988 4.796 18.382-0.883 1.531-2.063 2.87-3.469 3.942-1.405 1.071-3.009 1.852-4.72 2.299s-3.492 0.549-5.241 0.3c-1.75-0.248-3.434-0.841-4.952-1.744-11.325-6.636-20.848-15.951-27.732-27.127s-10.919-23.871-11.75-36.971c-6.234-2.557-12.627-3.836-19.341-3.836-29.251 0-53.068 23.816-53.068 53.069 0 3.836 0.639 7.672 1.438 11.509 20.78 5.114 39.161 18.542 50.031 37.404 3.677 6.393 1.599 14.706-4.955 18.382-6.393 3.677-14.706 1.599-18.382-4.955-8.152-14.226-22.539-23.657-38.522-25.895-0.64 0-1.279 0-1.918-0.159-0.16 0-0.48 0-0.799-0.16-1.599-0.16-3.197-0.319-4.796-0.319h-0.16c-29.251 0-52.907 23.816-52.907 52.909 0 8.95 2.238 17.582 6.554 25.415 8.95-3.517 18.701-5.595 29.091-5.595 7.513 0 13.427 6.075 13.427 13.427 0 7.513-6.074 13.428-13.427 13.428-29.251 0-52.909 23.816-52.909 52.907 0.16 29.572 23.977 53.389 53.228 53.389zM954.524 55.022h-43.158v82.479c0 34.208-27.813 62.021-62.019 62.021h-675.823c-34.206 0-62.019-27.813-62.019-62.021v-82.479h-43.158c-31.649 0-57.384-25.734-57.384-57.384v-32.928c0-7.512 6.074-13.427 13.427-13.427h973.933c7.512 0 13.427 6.074 13.427 13.427v32.928c0.159 31.808-25.576 57.384-57.225 57.384zM138.518 137.502c0 19.341 15.665 35.007 35.005 35.007h675.823c19.341 0 35.006-15.666 35.006-35.007v-82.479h-745.834v82.479zM984.894-21.703h-946.918v19.5c0 16.784 13.587 30.372 30.37 30.372h886.017c16.784 0 30.372-13.587 30.372-30.372v-19.5h0.159zM204.534 127.273h-6.234c-7.513 0-13.427-6.074-13.427-13.427s6.074-13.427 13.427-13.427h6.234c7.512 0 13.427 6.074 13.427 13.427s-6.074 13.427-13.427 13.427zM259.2 127.273h-6.234c-7.513 0-13.427-6.074-13.427-13.427s6.074-13.427 13.427-13.427h6.234c7.512 0 13.427 6.074 13.427 13.427s-5.915 13.427-13.427 13.427zM314.027 127.273h-6.234c-7.513 0-13.427-6.074-13.427-13.427s6.074-13.427 13.427-13.427h6.234c7.512 0 13.427 6.074 13.427 13.427s-5.915 13.427-13.427 13.427zM368.854 127.273h-6.234c-7.513 0-13.427-6.074-13.427-13.427s6.074-13.427 13.427-13.427h6.234c7.512 0 13.427 6.074 13.427 13.427s-6.074 13.427-13.427 13.427zM423.681 127.273h-6.234c-7.513 0-13.427-6.074-13.427-13.427s6.074-13.427 13.427-13.427h6.234c7.512 0 13.427 6.074 13.427 13.427s-6.075 13.427-13.427 13.427zM807.467 244.598c2.398-1.758 5.114-2.557 7.831-2.557 4.157 0 8.313 1.918 11.030 5.594l177.907 248.878c2.062 2.93 2.882 6.557 2.283 10.089s-2.569 6.685-5.481 8.773c-2.93 2.062-6.557 2.882-10.089 2.283s-6.685-2.568-8.773-5.481l-177.747-248.878c-4.316-6.074-2.878-14.385 3.037-18.701zM771.821 330.595l-48.113-67.295c-1.915-2.93-2.624-6.486-1.981-9.928 0.643-3.44 2.591-6.5 5.435-8.542 2.846-2.040 6.367-2.904 9.833-2.412 3.466 0.494 6.609 2.305 8.771 5.059l47.952 67.454c4.316 6.074 2.878 14.385-3.196 18.861s-14.386 2.876-18.703-3.197zM870.444 432.096c4.157 0 8.313 1.918 11.030 5.594l42.039 58.984c4.316 6.074 2.876 14.385-3.197 18.861-6.074 4.475-14.386 2.876-18.861-3.197l-42.039-58.982c-4.316-6.074-2.876-14.386 3.197-18.861 2.398-1.599 5.115-2.398 7.831-2.398zM191.586 242.042c2.717 0 5.435 0.799 7.833 2.557 6.074 4.316 7.512 12.788 3.197 18.861l-178.067 248.717c-4.316 6.075-12.788 7.513-18.862 3.197s-7.513-12.788-3.197-18.861l177.907-248.878c2.878-3.676 7.034-5.594 11.189-5.594zM216.362 333.792c-6.074-4.316-7.513-12.788-3.197-18.861l48.113-67.295c2.558-3.676 6.714-5.594 11.030-5.594 2.717 0 5.435 0.799 7.833 2.557 6.074 4.316 7.512 12.788 3.196 18.861l-48.113 67.295c-2.124 2.869-5.287 4.793-8.813 5.361-3.524 0.567-7.131-0.267-10.049-2.325zM125.57 437.69c2.557-3.676 6.713-5.594 10.869-5.594 2.717 0 5.435 0.799 7.832 2.557 6.074 4.316 7.513 12.788 3.197 18.861l-42.039 58.984c-4.316 6.074-12.788 7.512-18.862 3.196s-7.513-12.788-3.197-18.861l42.199-59.143zM438.546 583.309h45.715l-22.857-64.257c-3.037-8.632 0.159-18.064 7.992-22.858 3.197-2.079 6.714-3.037 10.231-3.037 4.955 0 9.91 1.918 13.746 5.754l94.148 95.747c5.435 5.594 7.034 13.746 3.995 20.939-3.037 7.194-10.069 11.829-17.743 11.829h-45.076l18.703 52.429c2.077 5.913 1.119 12.467-2.398 17.582-3.676 5.115-9.59 8.152-15.825 8.152h-14.226c-5.435 0-10.55-2.238-14.226-6.234l-76.406-83.759c-5.115-5.594-6.554-13.746-3.356-20.78 3.037-7.034 9.91-11.509 17.582-11.509zM555.552 600.571l-57.225-58.183 17.743 49.872c0.931 2.684 0.987 5.594 0.16 8.311h39.322zM518.308 678.736l-21.418-60.103c-0.932-2.684-0.987-5.594-0.16-8.311h-40.92l62.499 68.414z" />
<glyph unicode="&#xe927;" glyph-name="twitter" d="M918.74 656.568c0.65-9.096 0.65-18.194 0.65-27.29 0-277.44-211.166-597.116-597.116-597.116-118.904 0-229.36 34.438-322.274 94.212 16.894-1.948 33.136-2.598 50.68-2.598 98.11 0 188.426 33.136 260.548 89.664-92.264 1.95-169.584 62.376-196.224 145.544 12.996-1.948 25.99-3.248 39.636-3.248 18.842 0 37.686 2.6 55.228 7.146-96.162 19.494-168.286 103.96-168.286 205.97v2.598c27.938-15.594 60.428-25.34 94.862-26.638-56.528 37.686-93.562 102.010-93.562 174.782 0 38.984 10.394 74.72 28.588 105.908 103.31-127.35 258.6-210.516 432.73-219.614-3.248 15.594-5.198 31.836-5.198 48.080 0 115.656 93.564 209.868 209.868 209.868 60.426 0 115.004-25.34 153.34-66.274 47.43 9.096 92.912 26.64 133.198 50.68-15.596-48.732-48.732-89.666-92.264-115.654 42.234 4.546 83.168 16.244 120.852 32.486-28.584-41.582-64.322-78.616-105.256-108.506z" />
<glyph unicode="&#xe928;" glyph-name="user" horiz-adv-x="896" d="M608 704c0 88.366-71.634 160-160 160s-160-71.634-160-160v0c0-88.366 71.634-160 160-160s160 71.634 160 160v0zM192 704c0 141.385 114.615 256 256 256s256-114.615 256-256v0c0-141.385-114.615-256-256-256s-256 114.615-256 256v0zM98.6 32h698.8c-17.8 126.6-126.6 224-258 224h-182.8c-131.4 0-240.2-97.4-258-224zM0-4.6c0 197 159.6 356.6 356.6 356.6h182.8c197 0 356.6-159.6 356.6-356.6 0-32.8-26.6-59.4-59.4-59.4h-777.2c-32.8 0-59.4 26.6-59.4 59.4z" />
</font>
</defs>
</svg>
