<svg width="147" height="31" fill="none" xmlns="http://www.w3.org/2000/svg"><path d="M40 0L24.265 14.153l4.26 7.66H21.74l-2.856-4.825-7.246 6.282h21.489l-4.805-9.2L40 0zM15.733 11.6l-4.512-7.658h7.369l2.64 4.74 7.132-6.198H6.873l4.805 9.2L0 25.753 15.733 11.6z" fill="#66FA93"/><path d="M54.545 23.877h-7.393V2.059h7.543c2.166 0 4.027.436 5.582 1.31 1.563.866 2.763 2.113 3.6 3.74.839 1.626 1.258 3.572 1.258 5.837 0 2.273-.423 4.226-1.268 5.86-.838 1.633-2.049 2.887-3.633 3.76-1.576.874-3.473 1.31-5.689 1.31zm-3.44-3.42h3.249c1.52 0 2.787-.277 3.803-.831 1.016-.561 1.78-1.396 2.29-2.504.512-1.115.767-2.507.767-4.176s-.255-3.054-.767-4.155c-.51-1.107-1.267-1.935-2.269-2.482-.994-.554-2.23-.83-3.707-.83h-3.367v14.978zm17.615 3.42V7.513h3.856v16.364H68.72zM70.659 5.19a2.25 2.25 0 01-1.577-.608c-.44-.412-.66-.905-.66-1.48 0-.583.22-1.076.66-1.481.44-.412.966-.618 1.577-.618.618 0 1.143.206 1.576.618.44.405.661.898.661 1.48 0 .576-.22 1.07-.66 1.481-.434.405-.96.608-1.577.608zm13 25.163c-1.385 0-2.575-.188-3.57-.565-.994-.369-1.793-.866-2.396-1.491-.604-.625-1.023-1.318-1.257-2.077l3.473-.842c.156.32.383.636.681.948.299.32.7.582 1.204.788.512.213 1.154.32 1.928.32 1.094 0 2-.266 2.717-.8.717-.525 1.076-1.391 1.076-2.599v-3.1h-.192c-.198.398-.49.806-.873 1.226-.377.419-.877.77-1.502 1.054-.618.284-1.396.426-2.333.426-1.258 0-2.397-.294-3.42-.884-1.016-.596-1.825-1.484-2.43-2.663-.596-1.186-.894-2.67-.894-4.453 0-1.797.298-3.314.895-4.55.603-1.242 1.417-2.183 2.44-2.823 1.022-.646 2.162-.969 3.42-.969.958 0 1.746.163 2.364.49.625.32 1.122.707 1.492 1.161.369.448.65.87.841 1.268h.213V7.513h3.804v16.63c0 1.4-.334 2.557-1.002 3.473-.667.916-1.58 1.602-2.738 2.056-1.157.455-2.471.682-3.941.682zm.031-9.737c.817 0 1.513-.2 2.089-.597.575-.398 1.012-.97 1.31-1.715.298-.746.447-1.64.447-2.685 0-1.03-.149-1.931-.447-2.706-.291-.774-.724-1.374-1.3-1.8-.568-.433-1.267-.65-2.099-.65-.859 0-1.576.224-2.151.671-.576.448-1.009 1.062-1.3 1.843-.291.774-.437 1.655-.437 2.642 0 1.002.146 1.879.437 2.632.298.745.735 1.328 1.31 1.747.583.412 1.296.618 2.141.618zm11.602 3.26V7.513h3.857v16.364h-3.857zM97.231 5.19a2.25 2.25 0 01-1.577-.608c-.44-.412-.66-.905-.66-1.48 0-.583.22-1.076.66-1.481.44-.412.966-.618 1.577-.618.618 0 1.144.206 1.577.618.44.405.66.898.66 1.48 0 .576-.22 1.07-.66 1.481-.434.405-.96.608-1.577.608zm14.055 2.322v2.983h-9.407V7.513h9.407zm-7.085-3.92h3.857v15.362c0 .518.078.916.234 1.193.163.27.376.455.639.554.263.1.554.15.874.15.241 0 .461-.019.66-.054.206-.036.362-.068.469-.096l.65 3.015c-.206.07-.501.15-.884.234a7.247 7.247 0 01-1.385.15c-.966.028-1.836-.118-2.61-.437a4.053 4.053 0 01-1.843-1.513c-.448-.682-.668-1.534-.661-2.557v-16zm17.272 20.603c-1.598 0-2.983-.351-4.155-1.054-1.172-.703-2.081-1.687-2.727-2.951-.639-1.265-.959-2.742-.959-4.432 0-1.69.32-3.171.959-4.443.646-1.271 1.555-2.258 2.727-2.961 1.172-.703 2.557-1.055 4.155-1.055 1.598 0 2.983.352 4.155 1.055 1.172.703 2.077 1.69 2.716 2.961.647 1.272.97 2.752.97 4.443 0 1.69-.323 3.167-.97 4.432-.639 1.264-1.544 2.248-2.716 2.95-1.172.704-2.557 1.055-4.155 1.055zm.021-3.09c.867 0 1.591-.237 2.173-.713.583-.483 1.016-1.13 1.3-1.939.291-.81.437-1.712.437-2.706 0-1.001-.146-1.907-.437-2.716-.284-.817-.717-1.467-1.3-1.95-.582-.483-1.306-.725-2.173-.725-.888 0-1.626.242-2.216.725-.582.483-1.019 1.133-1.31 1.95-.284.81-.426 1.715-.426 2.716 0 .995.142 1.897.426 2.706.291.81.728 1.456 1.31 1.939.59.476 1.328.714 2.216.714zm13.631-13.593l3.303 6.04 3.356-6.04h4.08l-4.933 8.182 5.018 8.182h-4.059l-3.462-5.892-3.431 5.892h-4.091l4.986-8.182-4.858-8.182h4.091z" fill="#fff"/></svg>